<svg width="68" height="68" viewBox="0 0 68 68" fill="none" xmlns="http://www.w3.org/2000/svg">
<circle cx="33.725" cy="33.725" r="31.225" fill="#44474E" stroke="#7351AB" stroke-width="5"/>
<g clip-path="url(#clip0)">
<path d="M30.8254 38.7657C30.8254 40.2148 30.0596 42.5861 28.2469 42.5861C26.4342 42.5861 25.6683 40.2148 25.6683 38.7657C25.6683 37.3166 26.4342 34.9453 28.2469 34.9453C30.0596 34.9453 30.8254 37.3166 30.8254 38.7657ZM51.475 35.2642C51.475 37.4761 51.2501 39.8196 50.2454 41.8511C47.5825 47.1623 40.2614 47.0375 35.02 47.0375C29.6942 47.0375 21.9375 47.2247 19.1692 41.8511C18.1434 39.8404 17.75 37.4761 17.75 35.2642C17.75 32.3591 18.7266 29.6134 20.6658 27.3877C20.3004 26.2922 20.1248 25.1412 20.1248 24.0041C20.1248 22.5134 20.469 21.7645 21.1506 20.4125C24.3334 20.4125 26.3709 21.0365 28.7949 22.9086C30.8325 22.4302 32.9262 22.2152 35.027 22.2152C36.924 22.2152 38.8351 22.4163 40.6759 22.8531C43.0648 21.0018 45.1024 20.4125 48.25 20.4125C48.9386 21.7645 49.2758 22.5134 49.2758 24.0041C49.2758 25.1412 49.0931 26.2714 48.7348 27.3461C50.667 29.5926 51.475 32.3591 51.475 35.2642ZM46.9572 38.7657C46.9572 35.7219 45.0813 33.0386 41.7931 33.0386C40.4652 33.0386 39.1935 33.2743 37.8585 33.4546C36.8116 33.614 35.7647 33.6764 34.6898 33.6764C33.6218 33.6764 32.5749 33.614 31.521 33.4546C30.2071 33.2743 28.9214 33.0386 27.5864 33.0386C24.2982 33.0386 22.4223 35.7219 22.4223 38.7657C22.4223 44.8534 28.0712 45.7894 32.9895 45.7894H36.376C41.3153 45.7894 46.9572 44.8603 46.9572 38.7657ZM41.1537 34.9453C39.341 34.9453 38.5752 37.3166 38.5752 38.7657C38.5752 40.2148 39.341 42.5861 41.1537 42.5861C42.9664 42.5861 43.7323 40.2148 43.7323 38.7657C43.7323 37.3166 42.9664 34.9453 41.1537 34.9453Z" fill="#E5E5E5"/>
</g>
<defs>
<clipPath id="clip0">
<rect width="33.725" height="35.5" fill="white" transform="translate(17.75 15.9751)"/>
</clipPath>
</defs>
</svg>
