<svg width="68" height="68" viewBox="0 0 68 68" fill="none" xmlns="http://www.w3.org/2000/svg">
<circle cx="33.725" cy="33.725" r="31.225" fill="#44474E" stroke="#7351AB" stroke-width="5"/>
<path d="M26.2794 47.0374L20.0235 47.0374L20.0235 26.299L26.2794 26.299L26.2794 47.0374ZM23.148 23.4701C21.1476 23.4701 19.525 21.7644 19.525 19.7052C19.525 18.716 19.9067 17.7674 20.5862 17.068C21.2656 16.3685 22.1872 15.9756 23.148 15.9756C24.1089 15.9756 25.0305 16.3685 25.7099 17.068C26.3894 17.7674 26.7711 18.716 26.7711 19.7052C26.7711 21.7644 25.1478 23.4701 23.148 23.4701ZM49.6933 47.0374L43.4508 47.0374L43.4508 36.9421C43.4508 34.5361 43.4037 31.4507 40.1983 31.4507C36.9457 31.4507 36.4473 34.0646 36.4473 36.7687L36.4473 47.0374L30.1981 47.0374L30.1981 26.299L36.1981 26.299L36.1981 29.1279H36.2856C37.1208 27.4985 39.161 25.779 42.2048 25.779C48.5361 25.779 49.7 30.0709 49.7 35.6455L49.7 47.0374H49.6933Z" fill="#E5E5E5"/>
</svg>
