<svg width="173" height="61" viewBox="0 0 173 61" fill="none" xmlns="http://www.w3.org/2000/svg">
<path d="M16.4414 32.7068C16.3818 34.0003 16.0329 35.1449 15.3947 36.1406C14.7564 37.1278 13.8586 37.8937 12.7012 38.4383C11.5524 38.983 10.2376 39.2553 8.75684 39.2553C6.31445 39.2553 4.39118 38.4596 2.98703 36.8682C1.58287 35.2769 0.88079 33.0302 0.88079 30.1283V29.2092C0.88079 27.388 1.19566 25.7967 1.8254 24.4351C2.46366 23.0649 3.37849 22.0097 4.56989 21.2693C5.7613 20.5204 7.13993 20.146 8.70578 20.146C10.9609 20.146 12.7736 20.7417 14.1437 21.9331C15.5138 23.116 16.2925 24.7499 16.4797 26.8349H12.0119C11.9779 25.7031 11.6928 24.8903 11.1567 24.3968C10.6205 23.9032 9.80357 23.6564 8.70578 23.6564C7.59096 23.6564 6.774 24.0734 6.25488 24.9074C5.73577 25.7414 5.46345 27.0732 5.43792 28.9028V30.2176C5.43792 32.2005 5.68471 33.6174 6.17829 34.4684C6.68038 35.3194 7.5399 35.7449 8.75684 35.7449C9.78655 35.7449 10.5737 35.5024 11.1184 35.0173C11.663 34.5322 11.9524 33.7621 11.9864 32.7068H16.4414ZM26.1429 39C25.9897 38.7192 25.8535 38.3064 25.7344 37.7618C24.9429 38.7575 23.8366 39.2553 22.4155 39.2553C21.1134 39.2553 20.0071 38.8638 19.0965 38.0809C18.186 37.2895 17.7307 36.2981 17.7307 35.1067C17.7307 33.6089 18.2838 32.4771 19.3901 31.7111C20.4964 30.9452 22.1048 30.5623 24.2153 30.5623H25.5429V29.8347C25.5429 28.5667 24.994 27.9327 23.8962 27.9327C22.875 27.9327 22.3644 28.4348 22.3644 29.439H18.0626C18.0626 28.1029 18.6285 27.0179 19.7603 26.1839C20.9007 25.3499 22.3516 24.9329 24.1132 24.9329C25.8748 24.9329 27.2662 25.3627 28.2874 26.2222C29.3086 27.0817 29.832 28.2603 29.8575 29.7581V35.8726C29.8745 37.1406 30.0702 38.1107 30.4447 38.783V39H26.1429ZM23.4494 36.1917C23.9856 36.1917 24.4281 36.0768 24.777 35.847C25.1344 35.6173 25.3897 35.3577 25.5429 35.0684V32.86H24.2919C22.7942 32.86 22.0453 33.5323 22.0453 34.8769C22.0453 35.2683 22.1772 35.5875 22.441 35.8343C22.7048 36.0725 23.0409 36.1917 23.4494 36.1917ZM36.7889 39H32.4743V25.1882H36.7889V39ZM32.219 21.6267C32.219 21.014 32.4403 20.5119 32.8828 20.1205C33.3253 19.729 33.8998 19.5333 34.6061 19.5333C35.3124 19.5333 35.8869 19.729 36.3294 20.1205C36.7719 20.5119 36.9932 21.014 36.9932 21.6267C36.9932 22.2395 36.7719 22.7416 36.3294 23.133C35.8869 23.5245 35.3124 23.7202 34.6061 23.7202C33.8998 23.7202 33.3253 23.5245 32.8828 23.133C32.4403 22.7416 32.219 22.2395 32.219 21.6267ZM38.9079 31.9664C38.9079 30.5878 39.176 29.3624 39.7121 28.2901C40.2483 27.2093 41.0184 26.3796 42.0226 25.8009C43.0268 25.2222 44.2054 24.9329 45.5585 24.9329C47.6265 24.9329 49.2561 25.5754 50.4475 26.8604C51.639 28.1369 52.2347 29.8772 52.2347 32.0813V32.2345C52.2347 34.3876 51.6347 36.0981 50.4348 37.3661C49.2434 38.6256 47.6265 39.2553 45.5841 39.2553C43.6182 39.2553 42.0396 38.6681 40.8482 37.4937C39.6568 36.3108 39.0143 34.7109 38.9207 32.6941L38.9079 31.9664ZM43.2098 32.2345C43.2098 33.511 43.4097 34.4471 43.8097 35.0428C44.2097 35.6385 44.8011 35.9364 45.5841 35.9364C47.1159 35.9364 47.8988 34.7577 47.9328 32.4005V31.9664C47.9328 29.49 47.1414 28.2518 45.5585 28.2518C44.1203 28.2518 43.3417 29.3198 43.2225 31.4558L43.2098 32.2345ZM66.0337 31.5963H58.8087V39H54.3281V20.4141H66.7613V23.8734H58.8087V28.1497H66.0337V31.5963ZM80.3306 31.5963H73.1055V39H68.625V20.4141H81.0582V23.8734H73.1055V28.1497H80.3306V31.5963ZM89.1257 39.2553C87.0067 39.2553 85.2919 38.6256 83.9814 37.3661C82.6708 36.0981 82.0156 34.4514 82.0156 32.426V32.0686C82.0156 30.6559 82.2751 29.4092 82.7942 28.3284C83.3218 27.2476 84.0877 26.4136 85.0919 25.8265C86.0961 25.2307 87.2875 24.9329 88.6662 24.9329C90.6064 24.9329 92.1383 25.5371 93.2616 26.7455C94.3849 27.9455 94.9466 29.6219 94.9466 31.775V33.4472H86.394C86.5472 34.2216 86.8833 34.8301 87.4024 35.2726C87.9215 35.7151 88.5938 35.9364 89.4193 35.9364C90.7809 35.9364 91.8447 35.4598 92.6106 34.5067L94.5764 36.8299C94.0402 37.5703 93.2786 38.1618 92.2914 38.6043C91.3128 39.0383 90.2575 39.2553 89.1257 39.2553ZM88.6406 28.2518C87.3811 28.2518 86.6323 29.0858 86.394 30.7538H90.7341V30.4219C90.7511 29.7326 90.5767 29.2007 90.2107 28.8262C89.8448 28.4433 89.3214 28.2518 88.6406 28.2518ZM105.044 29.0815L103.627 28.9794C102.274 28.9794 101.406 29.4049 101.023 30.2559V39H96.7209V25.1882H100.755L100.895 26.9625C101.618 25.6094 102.627 24.9329 103.92 24.9329C104.38 24.9329 104.78 24.984 105.12 25.0861L105.044 29.0815ZM114.949 29.0815L113.533 28.9794C112.179 28.9794 111.311 29.4049 110.928 30.2559V39H106.627V25.1882H110.66L110.801 26.9625C111.524 25.6094 112.533 24.9329 113.826 24.9329C114.286 24.9329 114.686 24.984 115.026 25.0861L114.949 29.0815ZM122.928 39.2553C120.809 39.2553 119.094 38.6256 117.783 37.3661C116.473 36.0981 115.817 34.4514 115.817 32.426V32.0686C115.817 30.6559 116.077 29.4092 116.596 28.3284C117.124 27.2476 117.89 26.4136 118.894 25.8265C119.898 25.2307 121.089 24.9329 122.468 24.9329C124.408 24.9329 125.94 25.5371 127.063 26.7455C128.187 27.9455 128.748 29.6219 128.748 31.775V33.4472H120.196C120.349 34.2216 120.685 34.8301 121.204 35.2726C121.723 35.7151 122.396 35.9364 123.221 35.9364C124.583 35.9364 125.647 35.4598 126.412 34.5067L128.378 36.8299C127.842 37.5703 127.08 38.1618 126.093 38.6043C125.115 39.0383 124.059 39.2553 122.928 39.2553ZM122.443 28.2518C121.183 28.2518 120.434 29.0858 120.196 30.7538H124.536V30.4219C124.553 29.7326 124.379 29.2007 124.013 28.8262C123.647 28.4433 123.123 28.2518 122.443 28.2518ZM135.029 39H130.714V25.1882H135.029V39ZM130.459 21.6267C130.459 21.014 130.68 20.5119 131.123 20.1205C131.565 19.729 132.14 19.5333 132.846 19.5333C133.552 19.5333 134.127 19.729 134.569 20.1205C135.012 20.5119 135.233 21.014 135.233 21.6267C135.233 22.2395 135.012 22.7416 134.569 23.133C134.127 23.5245 133.552 23.7202 132.846 23.7202C132.14 23.7202 131.565 23.5245 131.123 23.133C130.68 22.7416 130.459 22.2395 130.459 21.6267ZM146.045 29.0815L144.628 28.9794C143.275 28.9794 142.407 29.4049 142.024 30.2559V39H137.722V25.1882H141.756L141.896 26.9625C142.62 25.6094 143.628 24.9329 144.922 24.9329C145.381 24.9329 145.781 24.984 146.122 25.0861L146.045 29.0815ZM154.993 39C154.84 38.7192 154.704 38.3064 154.585 37.7618C153.794 38.7575 152.687 39.2553 151.266 39.2553C149.964 39.2553 148.858 38.8638 147.947 38.0809C147.037 37.2895 146.581 36.2981 146.581 35.1067C146.581 33.6089 147.134 32.4771 148.241 31.7111C149.347 30.9452 150.955 30.5623 153.066 30.5623H154.393V29.8347C154.393 28.5667 153.845 27.9327 152.747 27.9327C151.726 27.9327 151.215 28.4348 151.215 29.439H146.913C146.913 28.1029 147.479 27.0179 148.611 26.1839C149.751 25.3499 151.202 24.9329 152.964 24.9329C154.725 24.9329 156.117 25.3627 157.138 26.2222C158.159 27.0817 158.683 28.2603 158.708 29.7581V35.8726C158.725 37.1406 158.921 38.1107 159.295 38.783V39H154.993ZM152.3 36.1917C152.836 36.1917 153.279 36.0768 153.628 35.847C153.985 35.6173 154.24 35.3577 154.393 35.0684V32.86H153.143C151.645 32.86 150.896 33.5323 150.896 34.8769C150.896 35.2683 151.028 35.5875 151.292 35.8343C151.555 36.0725 151.892 36.1917 152.3 36.1917Z" fill="#363940"/>
<circle cx="167.75" cy="44.2977" r="5.08333" fill="#7351AB"/>
</svg>
